<?xml version="1.0" encoding="UTF-8"?>
<svg width="40px" height="40px" viewBox="0 0 40 40" version="1.1" xmlns="http://www.w3.org/2000/svg" xmlns:xlink="http://www.w3.org/1999/xlink">
    <!-- Generator: Sketch 52.5 (67469) - http://www.bohemiancoding.com/sketch -->
    <title>Group 5</title>
    <desc>Created with Sketch.</desc>
    <g id="Page-1" stroke="none" stroke-width="1" fill="none" fill-rule="evenodd">
        <g id="SignIn_Web" transform="translate(-242.000000, -346.000000)">
            <g id="Group-5" transform="translate(242.000000, 346.000000)">
                <path d="M0.5,1.99729162 L0.5,38.0027084 C0.5,38.8312891 1.16933084,39.5 1.99729162,39.5 L38.0027084,39.5 C38.8312891,39.5 39.5,38.8306692 39.5,38.0027084 L39.5,1.99729162 C39.5,1.16871091 38.8306692,0.5 38.0027084,0.5 L1.99729162,0.5 C1.16871091,0.5 0.5,1.16933084 0.5,1.99729162 Z" id="Rectangle-5" stroke="#356AC3" fill="#FFFFFF"></path>
                <g id="GOOGLE" transform="translate(8.000000, 8.000000)">
                    <g id="search">
                        <path d="M5.31890625,14.5035 L4.4835,17.6221875 L1.43010937,17.6867812 C0.51759375,15.9942656 0,14.0578125 0,12 C0,10.0101094 0.4839375,8.13360937 1.34175,6.4813125 L1.34240625,6.4813125 L4.06078125,6.9796875 L5.25159375,9.68175 C5.00235937,10.4083594 4.86651562,11.1883594 4.86651562,12 C4.86660937,12.880875 5.02617187,13.7248594 5.31890625,14.5035 Z" id="Path" fill="#FBBB00"></path>
                        <path d="M24,12 C24,12.859125 23.9096719,13.6971563 23.7375937,14.5055156 C23.1534375,17.2562812 21.6270469,19.65825 19.5125625,21.3580312 L16.0879687,21.1826719 L15.603375,18.1575938 C17.0064375,17.33475 18.1029375,16.0470469 18.6805312,14.5055156 L13,14.5055156 L13,10 L23.7903281,10 C23.9301094,10.8225521 24,11.4892188 24,12 Z" id="Path" fill="#518EF8"></path>
                        <path d="M19.5118594,21.357375 L19.5125156,21.3580313 C17.4560625,23.0109844 14.8437188,24 12,24 C7.43010938,24 3.4569375,21.4457344 1.43010937,17.6868281 L5.31890625,14.5035469 C6.33229688,17.2081406 8.9413125,19.1334375 12,19.1334375 C13.3147031,19.1334375 14.5463906,18.7780313 15.6032813,18.1575938 L19.5118594,21.357375 Z" id="Path" fill="#28B446"></path>
                        <path d="M19.6595625,2.762625 L15.7720781,5.94525 C14.67825,5.26153125 13.38525,4.8665625 12,4.8665625 C8.87207812,4.8665625 6.21426562,6.88017188 5.25164062,9.68175 L1.34240625,6.4813125 L1.34175,6.4813125 C3.33890625,2.63076562 7.3621875,0 12,0 C14.9116406,0 17.5813125,1.03715625 19.6595625,2.762625 Z" id="Path" fill="#F14336"></path>
                    </g>
                </g>
            </g>
        </g>
    </g>
</svg>