<svg xmlns="http://www.w3.org/2000/svg" width="12" height="15" viewBox="0 0 12 15">
    <path fill="#FFFFFF" fill-rule="evenodd" d="M290,388 L290,390 C290,390.553 289.552,391 289,391 C288.448,391 288,390.553 288,390 L288,388 C287.448,388 287,387.553 287,387 C287,386.447 287.448,386 288,386 L290,386 C290.553,386 291,386.447 291,387 C291,387.553 290.553,388 290,388 Z M287,382 C287,380.9 287.9,380 289,380 C290.1,380 291,380.9 291,382 L291,384 L287,384 L287,382 Z M294,384 L293,384 L293,382 C293,379.8 291.2,378 289,378 C286.8,378 285,379.8 285,382 L285,384 L284,384 C283.448,384 283,384.448 283,385 L283,392 C283,392.553 283.448,393 284,393 L294,393 C294.553,393 295,392.553 295,392 L295,385 C295,384.448 294.553,384 294,384 Z" opacity="1" transform="translate(-283 -378)"/>
</svg>
